<svg width="512" height="512" viewBox="0 0 512 512" xmlns="http://www.w3.org/2000/svg">
  <defs>
    <linearGradient id="goldBg" x1="0%" y1="0%" x2="100%" y2="100%">
      <stop offset="0%" stop-color="#D9B65C"/>
      <stop offset="45%" stop-color="#B8860B"/>
      <stop offset="100%" stop-color="#8A6412"/>
    </linearGradient>
    <linearGradient id="goldText" x1="0%" y1="0%" x2="0%" y2="100%">
      <stop offset="0%" stop-color="#FDF3D7"/>
      <stop offset="45%" stop-color="#E8C875"/>
      <stop offset="100%" stop-color="#B8860B"/>
    </linearGradient>
    <filter id="softShadow" x="-20%" y="-20%" width="140%" height="140%">
      <feDropShadow dx="0" dy="6" stdDeviation="8" flood-color="#3a2a05" flood-opacity="0.35"/>
    </filter>
  </defs>

  <!-- background badge -->
  <rect x="8" y="8" width="496" height="496" rx="112" fill="url(#goldBg)"/>
  <rect x="24" y="24" width="464" height="464" rx="100" fill="none" stroke="#F5E2A8" stroke-opacity="0.5" stroke-width="4"/>

  <!-- monogram group -->
  <g filter="url(#softShadow)">
    <!-- P -->
    <path d="M150 148
             L150 372
             L196 372
             L196 268
             L228 268
             C282 268 314 240 314 200
             C314 160 282 148 232 148
             Z
             M196 190
             L226 190
             C252 190 266 195 266 208
             C266 222 252 226 226 226
             L196 226
             Z"
          fill="url(#goldText)" stroke="#6B4E00" stroke-width="3"/>

    <!-- S -->
    <path d="M292 330
             C300 358 328 378 372 378
             C412 378 440 358 440 328
             C440 300 420 286 380 276
             L356 270
             C344 267 338 262 338 254
             C338 244 350 238 366 238
             C382 238 394 244 398 258
             L438 246
             C428 214 402 196 368 196
             C330 196 302 216 302 246
             C302 272 320 286 358 296
             L382 302
             C396 306 404 311 404 320
             C404 332 390 338 372 338
             C352 338 338 330 332 314
             Z"
          fill="url(#goldText)" stroke="#6B4E00" stroke-width="3"/>

    <!-- diagonal bat accent crossing the monogram -->
    <rect x="120" y="368" width="290" height="16" rx="8"
          transform="rotate(-28 265 376)"
          fill="#3B2A0A" opacity="0.85"/>
    <circle cx="118" cy="392" r="13" fill="#3B2A0A" opacity="0.85"/>
  </g>
</svg>
